<?xml version="1.0" encoding="UTF-8"?>
<svg xmlns="http://www.w3.org/2000/svg" xmlns:xlink="http://www.w3.org/1999/xlink" version="1.2" >
<font id="STOP">
<font-face  font-family="Stop" units-per-em="4096" ascent="2802" descent="-41" font-style="normal" font-weight="400" font-stretch="normal" cap-height="3072" x-height="2048" underline-position="-100" underline-thickness="50" />
<missing-glyph  horiz-adv-x="3072" d="M512 0 L512 2560 L2560 2560 L2560 0 L512 0 Z M2494 66 L2494 2494 L578 2494 L578 66 L2494 66 Z " />
<glyph glyph-name="grave" unicode="&#x60;" horiz-adv-x="938" d="M82 2728 L688 2728 L897 2122 L418 2122 L82 2728 Z " />
<glyph glyph-name="one" unicode="1" horiz-adv-x="1450" d="M1294 0 L631 0 L631 2105 L82 2105 L561 2728 L1294 2728 L1294 0 Z " />
<glyph glyph-name="two" unicode="2" horiz-adv-x="2187" d="M82 0 L82 672 L1933 672 L1933 0 L82 0 Z M82 1032 Q82 1323 147 1511 Q213 1696 459 1696 L1020 1696 Q1090 1696 1130 1749 Q1171 1798 1171 1880 Q1171 2056 1028 2056 L82 2056 L82 2728 L1237 2728 Q1999 2728 2052 2023 Q2056 1970 2056 1917 Q2056 1741 2007 1565 Q1937 1331 1761 1184 Q1581 1032 1262 1032 L82 1032 Z " />
<glyph glyph-name="three" unicode="3" horiz-adv-x="2171" d="M1929 2728 L1450 2073 L82 2073 L82 2728 L1929 2728 Z M1257 0 L82 0 L82 655 L1004 655 Q1094 655 1143 717 Q1192 774 1192 856 Q1192 938 1143 1004 Q1094 1065 1004 1065 L299 1065 L705 1720 L1266 1720 Q1679 1720 1864 1462 Q2044 1204 2044 864 Q2044 516 1839 258 Q1634 0 1257 0 Z " />
<glyph glyph-name="four" unicode="4" horiz-adv-x="2327" d="M922 680 L1864 680 L1864 0 L922 0 L922 680 Z M922 2728 L1737 2728 L1249 1737 L2142 1737 L2142 1032 L82 1032 L922 2728 Z " />
<glyph glyph-name="five" unicode="5" horiz-adv-x="2130" d="M82 2081 L82 2728 L1810 2728 L1810 2081 L82 2081 Z M82 1720 L1147 1720 Q1556 1720 1782 1470 Q2003 1221 2003 864 Q2003 512 1778 258 Q1548 0 1147 0 L82 0 L82 647 L946 647 Q1012 647 1053 709 Q1090 766 1090 840 Q1090 922 1053 979 Q1012 1032 946 1032 L82 1032 L82 1720 Z " />
<glyph glyph-name="six" unicode="6" horiz-adv-x="2482" d="M922 2736 L1786 2736 L946 1200 Q893 1094 881 958 Q889 819 950 717 Q1012 614 1130 586 Q1159 586 1208 569 Q1360 573 1458 688 Q1552 799 1552 967 Q1548 1077 1511 1196 Q1470 1311 1409 1442 Q1348 1573 1290 1688 L2089 1688 Q2306 1208 2306 905 Q2306 778 2281 655 Q2183 311 1880 111 Q1610 -70 1135 -70 Q1069 -70 999 -66 Q811 -61 627 37 Q438 131 299 291 Q160 446 119 623 Q111 680 106 721 Q102 762 98 819 Q90 877 82 975 Q98 1290 201 1470 L922 2736 Z " />
<glyph glyph-name="seven" unicode="7" horiz-adv-x="2130" d="M844 1679 L1618 1679 L1065 0 L274 0 L844 1679 Z M82 2728 L1995 2728 L1753 2056 L82 2056 L82 2728 Z " />
<glyph glyph-name="eight" unicode="8" horiz-adv-x="2540" d="M1282 1393 Q1368 1446 1446 1507 Q1524 1569 1573 1647 Q1618 1724 1618 1823 Q1618 1974 1520 2077 Q1417 2175 1249 2175 Q1073 2175 967 2068 Q856 1962 848 1806 Q856 1786 856 1745 Q872 1642 922 1585 Q971 1524 1057 1475 Q1139 1421 1184 1393 Q1102 1335 1040 1294 Q979 1253 926 1196 Q872 1135 856 1024 Q856 1004 840 930 Q848 782 954 676 Q1061 569 1241 569 Q1438 569 1540 676 Q1638 778 1638 942 Q1638 1098 1540 1196 Q1442 1294 1282 1393 Z M1241 2802 Q1720 2802 2073 2601 Q2380 2421 2380 2048 Q2380 1995 2376 1937 Q2363 1831 2277 1679 Q2187 1524 2040 1401 Q2220 1323 2318 1151 Q2417 975 2417 754 Q2417 692 2400 586 Q2281 -66 1217 -66 Q819 -66 492 78 Q164 217 102 569 Q86 688 82 770 Q90 1204 446 1409 Q168 1671 135 1946 Q127 2003 127 2056 Q127 2429 418 2605 Q750 2802 1241 2802 Z " />
<glyph glyph-name="nine" unicode="9" horiz-adv-x="2458" d="M1483 -8 L610 -8 L1458 1528 Q1516 1642 1516 1761 Q1516 1855 1475 1950 Q1434 2040 1356 2097 Q1278 2150 1180 2150 Q1032 2150 938 2040 Q852 1937 852 1786 Q852 1774 852 1761 Q856 1630 897 1520 Q934 1409 991 1294 Q1049 1176 1114 1040 L315 1040 Q90 1520 82 1806 Q90 1880 123 2073 Q221 2425 532 2634 Q782 2802 1204 2802 Q1298 2802 1401 2793 Q1663 2777 1872 2629.5 Q2081 2482 2200 2249 Q2314 2011 2314 1761 Q2314 1491 2195 1257 L1483 -8 Z " />
<glyph glyph-name="zero" unicode="0" horiz-adv-x="2499" d="M1225 2130 Q1028 2126 913 1876 Q795 1622 786 1286 Q795 971 909 750 Q1020 528 1225 528 Q1430 528 1540 754 Q1651 979 1651 1303 Q1651 1651 1540 1892 Q1425 2130 1233 2130 Q1229 2130 1225 2130 Z M1225 -74 Q905 -74 643 118.5 Q381 311 233 639 Q82 963 82 1352 Q82 1737 221 2073 Q356 2408 618 2601 Q877 2785 1208 2785 Q1217 2785 1225 2785 Q1569 2773 1827 2585 Q2085 2392 2224 2068 Q2363 1741 2363 1352 Q2363 963 2216 639 Q2064 311 1802 118.5 Q1540 -74 1225 -74 Z " />
<glyph glyph-name="hyphen" unicode="&#x2d;" horiz-adv-x="2241" d="M82 1081 L82 1610 L2122 1610 L2122 1081 L82 1081 Z " />
<glyph glyph-name="equal" unicode="&#x3d;" horiz-adv-x="2232" d="M82 680 L82 1200 L2130 1200 L2130 680 L82 680 Z M82 1520 L82 2048 L2130 2048 L2130 1520 L82 1520 Z " />
<glyph glyph-name="q" unicode="q" horiz-adv-x="2990" d="" />
<glyph glyph-name="w" unicode="w" horiz-adv-x="3523" d="" />
<glyph glyph-name="e" unicode="e" horiz-adv-x="2130" d="" />
<glyph glyph-name="r" unicode="r" horiz-adv-x="2335" d="" />
<glyph glyph-name="t" unicode="t" horiz-adv-x="2007" d="" />
<glyph glyph-name="y" unicode="y" horiz-adv-x="2540" d="" />
<glyph glyph-name="u" unicode="u" horiz-adv-x="2662" d="" />
<glyph glyph-name="i" unicode="i" horiz-adv-x="1065" d="" />
<glyph glyph-name="o" unicode="o" horiz-adv-x="2990" d="" />
<glyph glyph-name="p" unicode="p" horiz-adv-x="2335" d="" />
<glyph glyph-name="bracketleft" unicode="&#x5b;" horiz-adv-x="1516" d="M700 2122 L700 614 L1442 614 L1442 0 L82 0 L82 2728 L1442 2728 L1442 2122 L700 2122 Z " />
<glyph glyph-name="bracketright" unicode="&#x5d;" horiz-adv-x="1524" d="M836 2114 L82 2122 L82 2728 L1450 2728 L1450 0 L90 0 L90 614 L836 614 L836 2114 Z " />
<glyph glyph-name="backslash" unicode="&#x5c;" horiz-adv-x="2380" d="M1507 0 L82 2728 L795 2728 L2212 0 L1507 0 Z " />
<glyph glyph-name="a" unicode="a" horiz-adv-x="2867" d="" />
<glyph glyph-name="s" unicode="s" horiz-adv-x="2007" d="" />
<glyph glyph-name="d" unicode="d" horiz-adv-x="2785" d="" />
<glyph glyph-name="f" unicode="f" horiz-adv-x="2212" d="" />
<glyph glyph-name="g" unicode="g" horiz-adv-x="2458" d="" />
<glyph glyph-name="h" unicode="h" horiz-adv-x="2007" d="" />
<glyph glyph-name="j" unicode="j" horiz-adv-x="1638" d="" />
<glyph glyph-name="k" unicode="k" horiz-adv-x="2171" d="" />
<glyph glyph-name="l" unicode="l" horiz-adv-x="1925" d="" />
<glyph glyph-name="semicolon" unicode="&#x3b;" horiz-adv-x="799" d="M82 2458 L762 2458 L762 1778 L82 1778 L82 2458 Z M82 1159 L762 1159 L426 209 L82 209 L82 1159 Z " />
<glyph glyph-name="quotesingle" unicode="&#x27;" horiz-adv-x="803" d="M82 2863 L762 2863 L426 1913 L82 1913 L82 2863 Z " />
<glyph glyph-name="z" unicode="z" horiz-adv-x="2253" d="" />
<glyph glyph-name="x" unicode="x" horiz-adv-x="2540" d="" />
<glyph glyph-name="c" unicode="c" horiz-adv-x="2212" d="" />
<glyph glyph-name="v" unicode="v" horiz-adv-x="2703" d="" />
<glyph glyph-name="b" unicode="b" horiz-adv-x="2294" d="" />
<glyph glyph-name="n" unicode="n" horiz-adv-x="2621" d="" />
<glyph glyph-name="m" unicode="m" horiz-adv-x="3359" d="" />
<glyph glyph-name="comma" unicode="&#x2c;" horiz-adv-x="803" d="M82 680 L762 680 L426 -270 L82 -270 L82 680 Z " />
<glyph glyph-name="period" unicode="&#x2e;" horiz-adv-x="803" d="M82 680 L762 680 L762 0 L82 0 L82 680 Z " />
<glyph glyph-name="slash" unicode="&#x2f;" horiz-adv-x="2380" d="M786 0 L82 0 L1499 2728 L2212 2728 L786 0 Z " />
<glyph glyph-name="space" unicode="&#x20;" horiz-adv-x="721" d="" />
<glyph glyph-name="asciitilde" unicode="&#x7e;" horiz-adv-x="1163" d="M356 1704 Q442 1704 626.5 1655 Q811 1606 897 1602 Q1040 1618 1106 1671 L1106 1200 Q1008 1135 913 1135 Q844 1135 655 1188 Q463 1241 348 1241 Q311 1241 262 1229 Q213 1212 164 1187.5 Q115 1163 82 1151 L82 1552 Q139 1704 356 1704 Z " />
<glyph glyph-name="exclam" unicode="&#x21;" horiz-adv-x="803" d="M82 1024 L82 2728 L770 2728 L770 1024 L82 1024 Z M82 0 L82 680 L770 680 L770 0 L82 0 Z " />
<glyph glyph-name="at" unicode="&#x40;" horiz-adv-x="3154" d="M2011 2081 L2380 2081 L2195 1110 Q2195 1102 2195 1094 Q2195 1081 2187 1040 Q2204 930 2249 930 Q2413 930 2503 1139 Q2589 1343 2589 1561 Q2564 1974 2269 2207.5 Q1974 2441 1585 2441 Q1249 2441 1016 2298 Q778 2154 655 1904.5 Q532 1655 532 1352 Q532 856 840 573 Q1147 287 1618 262 Q2048 262 2347 504 L2740 504 Q2572 213 2245 61 Q1913 -94 1585 -94 Q1176 -94 823 106 Q467 307 266 647 Q82 963 82 1327 Q82 1356 82 1384 Q111 1909 373 2228 Q631 2544 971 2675 Q1307 2802 1585 2802 Q1913 2802 2232 2654 Q2548 2503 2748 2241 Q2945 1974 2945 1655 Q2945 1270 2773 1012 Q2601 750 2367 627 Q2134 504 1954 504 Q1741 504 1733 639 Q1737 664 1737 688 Q1552 504 1348 504 Q1049 504 881 733 Q713 958 713 1233 Q713 1475 827 1675 Q938 1876 1122 1991 Q1303 2105 1499 2105 Q1655 2105 1786 2032 Q1917 1954 1978 1864 L2011 2081 Z M1860 1319 L1860 1368 Q1860 1479 1778 1569 Q1692 1655 1565 1655 Q1413 1655 1307 1536 Q1196 1417 1196 1286 Q1192 1245 1192 1208 Q1192 1081 1257 1028 Q1343 958 1499 958 Q1659 958 1749 1069 Q1835 1176 1860 1319 Z " />
<glyph glyph-name="numbersign" unicode="&#x23;" horiz-adv-x="4329" d="M2372 958 L2728 1729 L1843 1729 L1491 958 L2372 958 Z M3060 958 L3449 958 L3154 352 L2777 352 L2617 0 L1946 0 L2105 352 L1217 352 L1057 0 L377 0 L537 352 L82 352 L385 958 L795 958 L1155 1729 L762 1729 L1057 2335 L1434 2335 L1602 2720 L2290 2720 L2105 2335 L3002 2335 L3178 2720 L3858 2720 L3682 2335 L4129 2335 L3834 1729 L3412 1729 L3060 958 Z " />
<glyph glyph-name="dollar" unicode="&#x24;" horiz-adv-x="2216" d="M745 2744 L745 2863 L1442 2863 L1442 2744 L1929 2744 L1929 2097 L82 2097 Q123 2388 307 2548 Q487 2703 745 2744 Z M82 1720 L1188 1720 Q1454 1720 1667 1597 Q1876 1475 1982 1253 Q2064 1077 2064 864 Q2064 807 2056 745 Q2036 455 1843 238 Q1651 16 1368 16 L1368 -74 L680 -74 L680 16 L139 16 L139 655 L1106 655 Q1192 655 1245 708.5 Q1298 762 1298 840 Q1298 922 1253 975 Q1208 1024 1122 1024 Q795 1040 594 1085 Q393 1130 258 1278 Q123 1421 82 1720 Z " />
<glyph glyph-name="percent" unicode="&#x25;" horiz-adv-x="2867" d="M1626 1040 L2736 1040 L2736 0 L1626 0 L1626 1040 Z M82 2728 L1200 2728 L1200 1688 L82 1688 L82 2728 Z M930 0 L332 0 L1905 2728 L2499 2728 L930 0 Z " />
<glyph glyph-name="asciicircum" unicode="&#x5e;" horiz-adv-x="3138" d="M942 2761 L2142 2761 L2982 655 L1982 655 L1528 1847 L991 655 L82 655 L942 2761 Z " />
<glyph glyph-name="ampersand" unicode="&#x26;" horiz-adv-x="2097" d="M82 815 Q82 823 82 831 Q82 1380 729 1544 Q496 1843 496 2134 Q496 2265 573 2408 Q647 2552 803 2646 Q954 2736 1176 2736 L1864 2728 L1864 2097 L1495 2097 Q1253 2097 1241 1991 Q1253 1901 1393 1720 L1905 1016 L1065 1016 Q856 1016 840 823 Q848 754 905 700 Q958 647 1049 647 L1999 647 L1999 0 L1130 0 Q598 0 344 205 Q90 410 82 815 Z " />
<glyph glyph-name="asterisk" unicode="&#x2a;" horiz-adv-x="1253" d="M852 2134 L1069 1855 L852 1696 L643 1974 L434 1688 L221 1855 L418 2130 L82 2249 L156 2503 L500 2359 L500 2720 L762 2720 L762 2359 L1114 2503 L1196 2241 L852 2134 Z " />
<glyph glyph-name="parenleft" unicode="&#x28;" horiz-adv-x="1016" d="M258 2281 Q360 2482 545 2605 Q729 2724 971 2728 L971 2142 Q844 2142 766 1908.5 Q688 1675 680 1360 Q688 1065 762 848 Q831 627 971 578 L971 0 Q750 0 590 106 Q426 213 274 418 Q94 672 82 1335 Q94 1950 258 2281 Z " />
<glyph glyph-name="parenright" unicode="&#x29;" horiz-adv-x="1081" d="M795 2281 Q954 1958 954 1352 Q954 672 770 418 Q483 0 82 0 L82 578 Q221 623 295 844 Q365 1061 365 1360 Q365 1683 287 1912.5 Q209 2142 82 2142 L82 2728 Q324 2724 512 2605 Q696 2482 795 2281 Z " />
<glyph glyph-name="underscore" unicode="&#x5f;" horiz-adv-x="2892" d="M82 0 L82 528 L2757 528 L2757 0 L82 0 Z " />
<glyph glyph-name="plus" unicode="&#x2b;" horiz-adv-x="2216" d="M1360 1090 L1360 311 L831 311 L831 1090 L82 1090 L82 1618 L831 1618 L831 2376 L1360 2376 L1360 1618 L2122 1618 L2122 1090 L1360 1090 Z " />
<glyph glyph-name="Q" unicode="Q" horiz-adv-x="2990" d="M1106 1098 L2114 0 L1098 0 Q250 901 139 1257 Q82 1434 82 1622 Q82 1978 233 2200 Q467 2527 770 2658 Q1069 2789 1499 2802 Q1524 2802 1548 2802 Q1872 2802 2171 2695 Q2490 2580 2695 2334.5 Q2900 2089 2900 1729 Q2900 1470 2802 1225 Q2699 975 2515 770 L1683 770 L1987 1118 Q2195 1372 2195 1610 Q2195 1872 1991 2019 Q1802 2150 1556 2150 Q1536 2150 1516 2150 Q1266 2138 1081 1974 Q893 1810 881 1569 Q893 1343 1106 1098 Z " />
<glyph glyph-name="W" unicode="W" horiz-adv-x="3523" d="M2265 1704 L2642 2679 L3420 2679 L2257 0 L1417 2048 L1921 2728 L2265 1704 Z M938 2679 L1675 688 L1204 8 L82 2679 L938 2679 Z " />
<glyph glyph-name="E" unicode="E" horiz-adv-x="2130" d="M2003 1704 L2003 1024 L897 1024 L897 680 L2003 680 L2003 0 L82 0 L82 1704 L2003 1704 Z M82 2728 L2003 2728 L2003 2048 L82 2048 L82 2728 Z " />
<glyph glyph-name="R" unicode="R" horiz-adv-x="2335" d="M1192 729 Q1192 934 1122 979 Q1053 1024 889 1024 L82 1024 L82 1704 L1192 1704 Q1270 1704 1311 1753 Q1348 1802 1348 1872 Q1348 2048 1192 2048 L82 2048 L82 2728 L1483 2728 Q1729 2728 1901 2621 Q2068 2511 2154 2335 Q2241 2154 2241 1966 Q2241 1692 2081 1503 Q1917 1311 1634 1311 Q1618 1311 1610 1303 Q1638 1298 1740.5 1277.5 Q1843 1257 1929 1196 Q2011 1135 2011 1024 L2011 0 L1192 0 L1192 729 Z " />
<glyph glyph-name="T" unicode="T" horiz-adv-x="2007" d="M1843 2736 L1843 2048 L82 2048 L82 2736 L1843 2736 Z M954 1704 L954 872 Q954 758 1016 721 Q1073 680 1282 680 L1729 680 L1729 0 L836 0 Q397 0 295 217 Q193 434 193 913 L193 1704 L954 1704 Z " />
<glyph glyph-name="Y" unicode="Y" horiz-adv-x="2540" d="M1786 930 Q1552 836 1200 823 Q807 836 553 967 Q381 1057 279 1180 Q172 1303 127 1466 Q82 1626 82 1872 L82 2728 L897 2728 L897 1872 Q897 1692 999 1589 Q1102 1487 1241 1487 Q1389 1487 1487 1589 Q1585 1692 1585 1872 L1585 2728 L2400 2728 L2400 1872 Q2400 1659 2318 1466 Q2232 1270 2089 1130 Q1942 991 1786 930 Z M1835 680 L1835 0 L643 0 L643 680 L1835 680 Z " />
<glyph glyph-name="U" unicode="U" horiz-adv-x="2662" d="M82 2728 L901 2728 L901 991 Q901 872 926 819 Q950 762 1024 737 Q1094 713 1221 713 L1724 713 L1724 2728 L2540 2728 L2540 0 L901 0 Q618 0 450.5 69.5 Q283 139 209 262 Q131 385 106 553 Q82 721 82 967 L82 2728 Z " />
<glyph glyph-name="I" unicode="I" horiz-adv-x="1065" d="M909 1704 L909 0 L82 0 L82 1704 L909 1704 Z M82 2728 L909 2728 L909 2048 L82 2048 L82 2728 Z " />
<glyph glyph-name="O" unicode="O" horiz-adv-x="2990" d="M1491 1974 Q1245 1974 1073 1798 Q897 1618 897 1368 Q897 1114 1073 934 Q1249 754 1491 754 Q1651 754 1786 840 Q1921 922 1999 1061 Q2073 1200 2073 1368 Q2073 1618 1905 1798 Q1737 1974 1491 1974 Z M1491 2802 Q1778 2802 2036 2687 Q2290 2572 2482 2380 Q2671 2183 2781 1921 Q2892 1655 2892 1368 Q2892 979 2703 647 Q2511 315 2187 123 Q1864 -74 1491 -74 Q1118 -74 791 123 Q463 315 274 647 Q82 979 82 1368 Q82 1655 193 1921 Q303 2183 496 2380 Q684 2572 946 2687 Q1204 2802 1491 2802 Z " />
<glyph glyph-name="P" unicode="P" horiz-adv-x="2335" d="M82 2728 L1208 2728 Q1724 2728 1970 2552 Q2216 2372 2216 1880 Q2216 1417 1945.5 1228.5 Q1675 1040 1208 1040 L897 1040 L897 0 L82 0 L82 1704 L1200 1704 Q1278 1704 1323 1753 Q1364 1798 1364 1872 Q1364 1950 1323 1999 Q1282 2048 1208 2048 L82 2048 L82 2728 Z " />
<glyph glyph-name="braceleft" unicode="&#x7b;" horiz-adv-x="1634" d="M635 2728 L1561 2728 L1561 2122 L1004 2122 L696 1368 L1004 614 L1561 614 L1561 0 L635 0 L82 1368 L635 2728 Z " />
<glyph glyph-name="braceright" unicode="&#x7d;" horiz-adv-x="1626" d="M1004 2728 L1552 1368 L1012 0 L82 0 L82 614 L635 614 L938 1368 L635 2122 L82 2122 L82 2728 L1004 2728 Z " />
<glyph glyph-name="bar" unicode="&#x7c;" horiz-adv-x="627" d="M594 0 L82 0 L82 2728 L594 2728 L594 0 Z " />
<glyph glyph-name="A" unicode="A" horiz-adv-x="2867" d="M963 2728 L1839 2728 L2753 0 L82 0 L610 1704 L1298 1704 L1024 631 L1745 631 L963 2728 Z " />
<glyph glyph-name="S" unicode="S" horiz-adv-x="2007" d="M1065 2728 Q1028 2589 1028 2560 Q1065 2359 1159 2208 Q1249 2052 1462 1778 Q1675 1499 1782 1294 Q1888 1085 1888 848 Q1888 492 1634 246 Q1380 0 946 0 L82 0 L82 680 L852 680 Q954 680 1024 754 Q1090 823 1090 938 Q1090 1040 1028 1143 Q950 1266 721 1552 Q492 1835 377 2052 Q258 2269 258 2519 Q258 2580 291 2728 L1065 2728 Z " />
<glyph glyph-name="D" unicode="D" horiz-adv-x="2785" d="M82 2048 L82 2728 L1315 2728 Q1921 2728 2228 2408 Q2630 1995 2642 1393 Q2642 1372 2642 1352 Q2642 1016 2507 725 Q2359 414 2122 262 Q1905 135 1651 70 Q1397 0 1147 0 L82 0 L82 1712 L901 1712 L901 655 Q934 655 967 655 Q1376 655 1589 852 Q1819 1061 1819 1368 Q1819 1651 1663 1851 Q1507 2048 1253 2048 L82 2048 Z " />
<glyph glyph-name="F" unicode="F" horiz-adv-x="2212" d="M82 2728 L2060 2728 L2060 2048 L82 2048 L82 2728 Z M2060 1704 L2060 1024 L901 1024 L901 0 L82 0 L82 1704 L2060 1704 Z " />
<glyph glyph-name="G" unicode="G" horiz-adv-x="2458" d="M2314 2048 L1569 2048 Q1245 2048 1073 1835 Q897 1622 897 1327 Q905 1044 1085 831 Q1266 614 1569 614 Q1798 614 2007 713 Q2212 811 2314 983 L2314 225 Q2081 -41 1561 -41 Q1085 -41 754 147 Q422 332 254 664 Q82 991 82 1425 Q82 1970 438 2351 Q795 2728 1483 2728 L2314 2728 L2314 2048 Z M1634 1704 L2314 1704 L2314 1024 L1634 1024 L1634 1704 Z " />
<glyph glyph-name="H" unicode="H" horiz-adv-x="2007" d="M82 2728 L909 2728 L909 1823 L1843 1823 L1843 1143 L909 1143 L909 0 L82 0 L82 2728 Z " />
<glyph glyph-name="J" unicode="J" horiz-adv-x="1638" d="M82 0 L82 680 Q385 680 483 709 Q578 737 602 852 Q627 963 627 1311 L627 1704 L1450 1704 L1450 680 Q1450 365 1278 184 Q1102 0 778 0 L82 0 Z M627 2728 L1450 2728 L1450 2048 L627 2048 L627 2728 Z " />
<glyph glyph-name="K" unicode="K" horiz-adv-x="2171" d="M82 1622 L987 2728 L1860 2728 L762 1368 L2048 0 L987 0 L82 967 L82 1622 Z " />
<glyph glyph-name="L" unicode="L" horiz-adv-x="1925" d="M901 2728 L901 680 L1765 680 L1765 0 L82 0 L82 2728 L901 2728 Z " />
<glyph glyph-name="colon" unicode="&#x3a;" horiz-adv-x="799" d="M82 2458 L762 2458 L762 1778 L82 1778 L82 2458 Z M82 1159 L762 1159 L762 479 L82 479 L82 1159 Z " />
<glyph glyph-name="quotedbl" unicode="&#x22;" horiz-adv-x="1217" d="M82 2863 L520 2863 L520 1913 L82 1913 L82 2863 Z M705 2863 L1155 2863 L1155 1913 L705 1913 L705 2863 Z " />
<glyph glyph-name="Z" unicode="Z" horiz-adv-x="2253" d="M82 2728 L2097 2728 L1823 2048 L82 2048 L82 2728 Z M1663 1704 L1225 688 L2097 688 L2097 0 L82 0 L807 1704 L1663 1704 Z " />
<glyph glyph-name="X" unicode="X" horiz-adv-x="2540" d="M1233 606 Q946 303 680 156 Q410 4 82 0 L82 680 Q455 680 668 885 Q881 1085 881 1368 Q881 1651 672 1851 Q459 2048 82 2048 L82 2728 Q406 2728 680 2580 Q954 2429 1233 2122 Q1511 2417 1782 2572 Q2052 2724 2384 2728 L2384 2048 Q2126 2048 1950 1954 Q1769 1855 1679 1700 Q1585 1540 1585 1360 Q1585 1085 1802 885 Q2015 684 2384 680 L2384 -8 Q2056 -4 1786 152 Q1511 303 1233 606 Z " />
<glyph glyph-name="C" unicode="C" horiz-adv-x="2212" d="M1561 2728 L2048 2728 L2048 2032 L1864 2032 Q1491 2032 1229 1880 Q963 1724 963 1384 Q963 987 1204 836 Q1446 680 1855 680 L2048 680 L2048 0 L1352 0 Q905 0 622.5 221 Q340 442 217 758 Q90 1069 82 1368 Q82 1765 262 2072.5 Q442 2380 774 2556 Q1106 2728 1561 2728 Z " />
<glyph glyph-name="V" unicode="V" horiz-adv-x="2703" d="M82 2728 L897 2728 L1339 922 L1786 2728 L2601 2728 L1786 16 L897 16 L82 2728 Z " />
<glyph glyph-name="B" unicode="B" horiz-adv-x="2294" d="M1081 2728 Q1634 2728 1855 2572 Q2073 2417 2073 1991 Q2073 1606 1712 1352 Q1921 1270 2056 1106 Q2187 942 2187 754 Q2187 750 2187 745 Q2187 455 2064 291 Q1942 127 1724 66 Q1507 0 1208 0 L82 0 L82 680 L1073 680 Q1147 680 1192 725 Q1233 766 1233 823 Q1233 958 1090 958 L82 958 L82 1638 L1081 1638 Q1151 1638 1192 1695.5 Q1233 1753 1233 1839 Q1233 1929 1192 1991 Q1151 2048 1081 2048 L82 2048 L82 2728 L1081 2728 Z " />
<glyph glyph-name="N" unicode="N" horiz-adv-x="2621" d="M1700 2728 Q2118 2728 2294 2568 Q2466 2408 2466 2048 L2466 0 L1585 0 L1585 1753 Q1585 1917 1573 1970 Q1561 2019 1511 2036 Q1462 2048 1315 2048 L897 2048 L897 0 L82 0 L82 2728 L1700 2728 Z " />
<glyph glyph-name="M" unicode="M" horiz-adv-x="3359" d="M2400 2728 Q3228 2728 3228 2048 L3228 0 L2400 0 L2400 1704 Q2400 1855 2396 1917 Q2392 1974 2359 2007 Q2327 2040 2269 2044 Q2208 2048 2056 2048 L897 2048 L897 0 L82 0 L82 2728 L2400 2728 Z M2056 1704 L2056 0 L1241 0 L1241 1704 L2056 1704 Z " />
<glyph glyph-name="less" unicode="&#x3c;" horiz-adv-x="1683" d="M684 2040 L1602 2040 L963 1081 L1593 102 L692 102 L82 1081 L684 2040 Z " />
<glyph glyph-name="greater" unicode="&#x3e;" horiz-adv-x="1683" d="M995 2040 L1602 1081 L987 102 L82 102 L717 1081 L82 2040 L995 2040 Z " />
<glyph glyph-name="question" unicode="&#x3f;" horiz-adv-x="1962" d="M406 0 L406 655 L1130 655 L1130 0 L406 0 Z M442 1024 L836 1855 Q840 1872 844 1884 Q844 1896 844 1913 Q844 1995 795 2048 Q745 2097 668 2097 Q664 2097 659 2097 L82 2097 L82 2728 L918 2728 Q1253 2728 1446 2601 Q1634 2474 1634 2224 Q1634 2044 1524 1815 L1139 1024 L442 1024 Z " />
</font>
</svg>
